<svg width="6" height="8" fill="none" xmlns="http://www.w3.org/2000/svg"><path d="M1.795.337c-.083.019-.089.024-.668.602-.338.336-.587.593-.6.616a.301.301 0 0 0-.005.215c.01.019.505.522 1.113 1.13L2.73 3.995l-1.099 1.1C.582 6.145.532 6.197.515 6.249a.267.267 0 0 0 .013.197c.012.023.26.278.599.616.571.57.579.577.636.593.069.02.122.014.188-.022.031-.017.583-.563 1.781-1.761 1.667-1.668 1.736-1.739 1.753-1.791a.274.274 0 0 0-.01-.192C5.448 3.835 2.004.393 1.95.366a.275.275 0 0 0-.155-.029" fill="#212531" fill-rule="evenodd"/></svg>