<svg width="34" height="34" fill="none" xmlns="http://www.w3.org/2000/svg"><path d="M15.047 10.001c-.46.19-.686.438-1.207 1.332l-.446.765-1.045.03c-1.025.029-1.051.033-1.427.209a2.588 2.588 0 0 0-1.401 1.823c-.036.189-.057 1.719-.057 3.995.001 4.017.008 4.114.323 4.694.314.578.909 1.036 1.575 1.214.416.111 10.86.111 11.276 0 .666-.178 1.261-.636 1.575-1.214.315-.58.322-.677.323-4.694 0-2.276-.021-3.806-.057-3.995a2.588 2.588 0 0 0-1.401-1.823c-.376-.176-.402-.18-1.427-.209l-1.045-.03-.444-.765c-.511-.878-.788-1.177-1.253-1.351-.306-.114-.425-.122-1.925-.121-1.566.002-1.606.005-1.937.14m2.661 4.478a3.327 3.327 0 0 1 2.284 1.784c.126.265.261.642.298.838.09.465.04 1.242-.11 1.716-.295.931-1.091 1.738-2.079 2.106-.286.107-.45.126-1.101.126s-.815-.019-1.101-.126a3.48 3.48 0 0 1-1.731-1.378c-.309-.477-.461-.981-.495-1.638-.052-1.006.26-1.814.978-2.529.817-.814 1.92-1.138 3.057-.899m-1.273 1.078c-1.552.435-2.2 2.267-1.248 3.526a2.25 2.25 0 0 0 3.628-.002c.308-.408.424-.778.421-1.344-.005-.786-.328-1.41-.952-1.837-.557-.381-1.252-.51-1.849-.343" fill="#fff" fill-rule="evenodd"/></svg>