<svg width="20" height="20" fill="none" xmlns="http://www.w3.org/2000/svg"><path d="M9.224.866C7.002 1.082 5.1 1.97 3.547 3.516 2.083 4.973 1.219 6.7.912 8.783c-.083.561-.083 1.873 0 2.434.211 1.43.696 2.715 1.456 3.85a9.571 9.571 0 0 0 2.565 2.565c1.135.759 2.417 1.245 3.85 1.457.608.09 1.906.082 2.534-.016 2.019-.314 3.722-1.175 5.152-2.604 1.002-1.002 1.678-2.059 2.149-3.358a9.142 9.142 0 0 0-.986-8.178 8.618 8.618 0 0 0-1.18-1.417A9.013 9.013 0 0 0 11.317.934C10.788.855 9.699.82 9.224.866m1.709 1.404c2.873.329 5.365 2.297 6.381 5.039.616 1.662.616 3.725 0 5.382a7.81 7.81 0 0 1-5.393 4.857c-.703.179-1.143.232-1.921.232s-1.218-.053-1.921-.232a7.786 7.786 0 0 1-5.814-6.631 9.93 9.93 0 0 1-.04-.917c0-.321.018-.733.04-.917a7.788 7.788 0 0 1 6.447-6.765c.665-.112 1.5-.13 2.221-.048M9.5 4.553a.681.681 0 0 0-.345.33l-.072.134v5.833l.074.137c.091.171.241.3.403.347.084.025.764.033 2.129.026l2.005-.01.142-.1a.676.676 0 0 0 .119-1.008c-.214-.244-.186-.24-1.93-.241L10.467 10l-.001-2.442c0-1.601-.012-2.485-.035-2.567a.773.773 0 0 0-.368-.426.736.736 0 0 0-.563-.012" fill="#212531" fill-rule="evenodd"/></svg>