<svg width="16" height="18" fill="none" xmlns="http://www.w3.org/2000/svg"><path d="M5.037.335a2.574 2.574 0 0 0-1.282.649c-.336.314-.555.674-.707 1.163l-.075.24V13.32l.075.24c.15.482.366.841.695 1.153.327.31.677.507 1.112.626l.225.061h8.133l.225-.061a2.54 2.54 0 0 0 1.091-.605c.374-.349.59-.719.743-1.267.046-.165.048-.448.048-5.627V2.387l-.075-.24a4.066 4.066 0 0 0-.151-.405C14.785 1.076 14.149.556 13.4.358c-.177-.047-.388-.05-4.173-.055-3.304-.005-4.022.001-4.19.032m-3.37 2.498c-.519.35-.756.636-.914 1.1l-.073.214v9.706l.061.3a4.48 4.48 0 0 0 .654 1.602c.636.965 1.604 1.616 2.792 1.877l.28.061h3.506c3.942 0 3.602.018 4.027-.203.3-.155.494-.345.772-.756.133-.196.241-.364.241-.372 0-.009-1.803-.016-4.006-.016-2.478 0-4.104-.01-4.26-.027-1.268-.133-2.268-.988-2.617-2.239l-.063-.227-.007-5.62c-.006-4.436-.014-5.619-.04-5.618a2.809 2.809 0 0 0-.353.218" fill="#30CA4C" fill-rule="evenodd"/></svg>