<svg width="20" height="14" fill="none" xmlns="http://www.w3.org/2000/svg"><path d="M6.492.4c-1.277.269-2.587.875-3.109 1.44-.768.829-1.749 3.524-2.149 5.9-.172 1.022-.284 2.431-.221 2.767.032.174.31.581.61.895.602.631 1.43 1.115 2.528 1.48.558.186 1.149.318 1.421.318.558 0 1.059-.266 1.445-.767.157-.204.181-.266.102-.266-.098 0-.873-.24-1.246-.386-.748-.292-1.614-.779-1.837-1.033a.575.575 0 0 1 .148-.907.45.45 0 0 1 .304-.065c.146.01.221.045.5.231.97.648 2.264 1.079 3.795 1.265.483.058 1.951.058 2.434 0 1.531-.186 2.825-.617 3.795-1.265.279-.186.354-.221.5-.231a.45.45 0 0 1 .304.065.575.575 0 0 1 .148.907c-.223.254-1.089.741-1.837 1.033-.373.146-1.148.386-1.246.386-.079 0-.055.062.102.266.386.501.887.767 1.445.767.271 0 .861-.132 1.424-.318 1.086-.359 1.923-.85 2.525-1.48.3-.314.578-.721.61-.895.06-.319-.045-1.69-.204-2.664-.394-2.417-1.384-5.159-2.169-6.007-.473-.51-1.618-1.067-2.817-1.37-.511-.129-.752-.152-1.059-.1a1.823 1.823 0 0 0-1.271.944c-.064.131-.098.238-.081.253.017.015.181.045.364.067 1.183.139 2.648.619 3.46 1.136.275.174.36.48.215.768a.575.575 0 0 1-.45.319c-.141.021-.179.009-.506-.161-.932-.485-1.787-.75-2.952-.914-.624-.088-2.41-.088-3.034 0-1.129.159-1.878.385-2.807.845-.471.234-.518.25-.656.229a.574.574 0 0 1-.445-.318.553.553 0 0 1-.011-.521c.074-.163.155-.224.613-.459a9.56 9.56 0 0 1 3.069-.924c.185-.022.351-.052.368-.067.017-.015-.017-.122-.081-.253A1.836 1.836 0 0 0 7.342.382C7.049.32 6.849.324 6.492.4m1.533 5.964c.252.135.469.36.602.624.141.279.178.445.178.795-.001.506-.165.886-.525 1.214-.242.222-.484.314-.83.316-.233.002-.295-.011-.491-.103-.433-.204-.742-.638-.832-1.168-.098-.582.138-1.224.574-1.556.269-.205.432-.255.799-.243.285.009.337.021.525.121m5.05-.016c.23.115.517.406.638.645.247.487.247 1.065.002 1.566-.207.42-.55.691-.989.778-.375.075-.806-.075-1.108-.384-.661-.679-.587-1.906.149-2.467.267-.204.433-.254.8-.244.272.008.343.023.508.106" fill="#fff" fill-rule="evenodd"/></svg>