<svg width="18" height="20" fill="none" xmlns="http://www.w3.org/2000/svg"><path d="M5.04.886a3.682 3.682 0 0 0-2.925 2.579c-.127.44-.44 1.754-1.041 4.377C.76 9.215.751 9.261.751 9.555c-.001 1.044.686 1.925 1.724 2.211.233.064.293.066 2.118.077l1.878.011-.37 1.484a53.935 53.935 0 0 0-.431 1.817c-.331 1.838.147 3.498 1.165 4.04.193.103.58.215.744.215.273 0 .573-.203.718-.486.04-.078.262-.805.493-1.616.304-1.068.45-1.53.526-1.674.232-.438 1.052-1.516 1.775-2.337l.219-.248V2.009l-.08-.031c-.147-.056-1.755-.443-2.47-.595A67.561 67.561 0 0 0 6.135.885 3.686 3.686 0 0 0 5.04.886m8.612.001a1.858 1.858 0 0 0-1.412 1.45c-.019.104-.03 1.908-.03 5.063v4.903l1.777-.01c1.742-.009 1.782-.01 1.973-.075a1.948 1.948 0 0 0 1.208-1.208l.067-.195.008-4.155c.01-4.655.022-4.373-.208-4.833a1.832 1.832 0 0 0-1.24-.942c-.289-.06-1.862-.059-2.143.002" fill="#212531" fill-rule="evenodd"/></svg>