<svg width="22" height="15" fill="none" xmlns="http://www.w3.org/2000/svg"><path d="M10.388.696C8.741.87 7.29 1.581 6.175 2.761a6.582 6.582 0 0 0-1.727 3.468l-.066.408h-.335C2.336 6.637.754 7.808.208 9.478a4.12 4.12 0 0 0 2.639 5.183c.676.219.199.207 8.153.207 6.088 0 7.358-.008 7.572-.051 1.774-.351 3.068-1.661 3.369-3.412.264-1.539-.433-3.162-1.748-4.066a4.195 4.195 0 0 0-2.24-.702h-.335l-.066-.408c-.448-2.761-2.664-4.991-5.425-5.458-.503-.085-1.31-.12-1.739-.075m.803 3.669a.754.754 0 0 1 .424.342c.058.105.064.348.074 2.856l.01 2.741 1.159-1.084c.637-.596 1.21-1.11 1.273-1.144.169-.09.494-.078.66.025.312.193.417.651.215.944-.141.205-3.594 3.42-3.739 3.482a.767.767 0 0 1-.534 0c-.145-.062-3.598-3.277-3.739-3.482-.202-.293-.097-.751.215-.944.166-.103.491-.115.66-.025.063.034.636.548 1.273 1.144l1.159 1.084.01-2.741c.01-2.47.017-2.752.071-2.851a.715.715 0 0 1 .385-.332.566.566 0 0 1 .424-.015" fill="#fff" fill-rule="evenodd"/></svg>