<svg width="16" height="22" fill="none" xmlns="http://www.w3.org/2000/svg"><path d="M3.336.763a4.033 4.033 0 0 0-.96.316A3.505 3.505 0 0 0 .601 3.124c-.188.564-.174-.153-.174 9.128 0 9.354-.019 8.509.191 8.747a.792.792 0 0 0 .469.275.868.868 0 0 0 .512-.074c.052-.027 1.51-1.07 3.241-2.318 1.731-1.247 3.159-2.263 3.173-2.258.015.005 1.431 1.021 3.147 2.257a315.8 315.8 0 0 0 3.227 2.309.894.894 0 0 0 .76.012c.134-.071.32-.28.38-.428l.06-.147.008-8.107c.005-5.49-.001-8.227-.02-8.48a3.44 3.44 0 0 0-.402-1.451C14.708 1.69 13.845 1.033 12.8.783 12.612.738 12.322.735 8.08.73 4.284.726 3.524.731 3.336.763" fill="#30CA4C" fill-rule="evenodd"/></svg>