<svg width="22" height="20" fill="none" xmlns="http://www.w3.org/2000/svg"><path d="M10.491.865c-.797.214-1.375.984-1.375 1.83.001.413.106.729.365 1.1.147.211.345.397.519.49.081.043.064.08-1.057 2.322L7.804 8.885l-2.052-2.05C4.426 5.51 3.707 4.766 3.718 4.73a5.51 5.51 0 0 1 .116-.293c.131-.313.161-.759.075-1.1a1.753 1.753 0 0 0-.501-.889C2.363 1.399.614 1.883.238 3.326c-.213.816.214 1.736.982 2.118l.265.132.88 4.371.88 4.371h15.51l.875-4.365.875-4.365.256-.123c.47-.226.864-.711 1-1.232.334-1.282-.775-2.521-2.088-2.332a1.819 1.819 0 0 0-1.078.546c-.575.583-.714 1.399-.366 2.147l.082.177-2.057 2.057-2.058 2.057-1.135-2.27-1.136-2.271.183-.126c.632-.435.934-1.319.708-2.066-.188-.618-.713-1.13-1.322-1.289a2.404 2.404 0 0 0-1.003.002m-7.08 16.084c0 1.118.031 1.354.225 1.749.147.299.522.68.807.818.462.223.082.211 6.557.211 6.475 0 6.096.012 6.557-.211.255-.124.65-.509.787-.767.211-.397.246-.652.246-1.778V15.95H3.41l.001.999" fill="#30CA4C" fill-rule="evenodd"/></svg>