<svg width="18" height="20" fill="none" xmlns="http://www.w3.org/2000/svg"><path d="M10.275.628c-.246.043-.437.195-.572.457-.039.077-.262.806-.494 1.618-.302 1.059-.451 1.534-.526 1.675-.209.395-1.092 1.561-1.734 2.291l-.259.294v11.038l.069.027c.292.111 2.24.561 3.504.809 1.537.302 1.823.342 2.277.324a3.615 3.615 0 0 0 3.24-2.315c.137-.347.446-1.613 1.187-4.861.274-1.201.282-1.246.282-1.53.001-.997-.632-1.857-1.604-2.18-.21-.069-.211-.069-2.169-.078-1.832-.009-1.958-.013-1.944-.061.08-.262.752-3.026.798-3.281.326-1.812-.13-3.441-1.125-4.019-.272-.158-.686-.251-.93-.208M2.26 7.743C1.623 7.849 1.052 8.352.832 9l-.067.195-.008 4.155c-.01 4.655-.022 4.373.208 4.833.212.423.598.743 1.105.916.149.05.267.056 1.2.056.933 0 1.051-.006 1.2-.056.611-.208 1.002-.59 1.239-1.211l.066-.173.008-5.002.008-5.003-1.688.004c-.928.001-1.758.015-1.843.029" fill="#30CA4C" fill-rule="evenodd"/></svg>