<svg width="16" height="14" fill="none" xmlns="http://www.w3.org/2000/svg"><path d="M2.267.751a3.24 3.24 0 0 0-.407.113A2.582 2.582 0 0 0 .183 2.8c-.053.256-.053 8.144 0 8.4.219 1.064 1.07 1.89 2.111 2.052.148.023 1.648.029 5.826.023l5.627-.008.24-.075c.936-.293 1.565-.955 1.806-1.904l.06-.235V2.947l-.06-.235C15.53 1.679 14.772.954 13.754.761 13.567.725 12.852.72 7.977.723c-3.204.002-5.626.014-5.71.028m11.34 1.182c.388.082.744.358.911.707.124.257.152.412.143.773l-.008.303-3.32 1.795a550.62 550.62 0 0 1-3.334 1.795c-.008.001-1.508-.807-3.334-1.794L1.347 3.718l-.008-.328a1.868 1.868 0 0 1 .034-.491c.117-.455.523-.85.991-.963.236-.057 10.974-.06 11.243-.003M4.555 6.792c1.755.95 3.244 1.74 3.309 1.756a.574.574 0 0 0 .237.008c.078-.015 1.195-.604 3.302-1.743a658.124 658.124 0 0 1 3.224-1.737c.035-.013.04.325.04 2.916 0 2.545-.006 2.951-.041 3.087a1.37 1.37 0 0 1-1.002.987c-.255.06-10.989.061-11.244.001a1.378 1.378 0 0 1-1.006-.961c-.035-.137-.041-.538-.041-3.098 0-1.618.007-2.941.015-2.941s1.451.776 3.207 1.725" fill="#fff" fill-rule="evenodd"/></svg>