<svg width="20" height="22" fill="none" xmlns="http://www.w3.org/2000/svg"><path d="M9.27.201a8.722 8.722 0 0 0-1.31.233c-1.379.349-2.764 1.17-3.776 2.24A8.443 8.443 0 0 0 1.903 7.81c-.02.238-.036 1.236-.036 2.253v1.826l-.746 1.514c-.409.833-.771 1.604-.804 1.714a2.049 2.049 0 0 0-.003.966c.153.526.519.982.961 1.198.485.237-.227.219 8.725.219s8.24.018 8.725-.219c.441-.215.809-.673.959-1.193.072-.25.055-.825-.031-1.067a51.897 51.897 0 0 0-.786-1.642l-.729-1.479-.013-2.192c-.015-2.354-.018-2.396-.208-3.241-.602-2.685-2.618-4.929-5.255-5.851A8.753 8.753 0 0 0 11.133.25C10.669.185 9.699.16 9.27.201M6.82 18.692c.149.653.393 1.111.847 1.587a3.203 3.203 0 0 0 2.004.995c.739.086 1.575-.137 2.212-.591a3.685 3.685 0 0 0 1.027-1.202c.08-.158.225-.58.271-.789l.02-.092H6.799l.021.092" fill="#30CA4C" fill-rule="evenodd"/></svg>