<svg width="20" height="22" fill="none" xmlns="http://www.w3.org/2000/svg"><path d="M9.267.2c-.44.046-.915.131-1.327.237-1.381.358-2.751 1.174-3.756 2.237A8.443 8.443 0 0 0 1.903 7.81c-.02.238-.036 1.236-.036 2.253v1.826l-.746 1.514c-.41.833-.772 1.604-.804 1.714a2.049 2.049 0 0 0-.003.966c.153.526.519.982.961 1.198.485.237-.227.219 8.725.219s8.24.018 8.725-.219c.441-.215.809-.673.959-1.193.072-.25.055-.825-.031-1.067a51.897 51.897 0 0 0-.786-1.642l-.729-1.479-.013-2.192c-.015-2.354-.018-2.396-.208-3.241-.602-2.685-2.618-4.929-5.255-5.851A8.731 8.731 0 0 0 11.133.25C10.677.186 9.664.159 9.267.2M6.82 18.692c.228.998.853 1.812 1.73 2.25a3.242 3.242 0 0 0 1.779.332 3.22 3.22 0 0 0 1.99-.979c.45-.468.723-.976.862-1.603l.02-.092H6.799l.021.092" fill="#30CA4C" fill-rule="evenodd"/></svg>