<svg width="14" height="16" fill="none" xmlns="http://www.w3.org/2000/svg"><path d="M3.625 3.826C1.537 5.974.197 7.369.157 7.437c-.207.358-.206.78.004 1.138.043.074 1.226 1.307 3.234 3.372 1.741 1.79 3.273 3.363 3.404 3.495l.239.24.74-.762c.408-.419.738-.77.734-.779-.004-.01-1.102-1.143-2.439-2.517A362.412 362.412 0 0 1 3.64 9.112c0-.006 2.331-.012 5.18-.012H14V6.93l-5.197-.006-5.198-.006 2.45-2.517a426.273 426.273 0 0 0 2.457-2.535C8.518 1.851 7.053.327 7.034.327c-.003 0-1.537 1.574-3.409 3.499" fill="#3A4659" fill-rule="evenodd"/></svg>