<svg width="14" height="16" fill="none" xmlns="http://www.w3.org/2000/svg"><path d="M6.222 1.086c-.408.419-.738.77-.734.78.004.01 1.109 1.151 2.457 2.535l2.45 2.517-5.198.006L0 6.93V9.1l5.186.006 5.186.006-2.439 2.505a404.11 404.11 0 0 0-2.445 2.524c-.004.01.326.361.734.78l.741.761.238-.24c.131-.132 1.663-1.705 3.404-3.495 2.008-2.065 3.191-3.298 3.234-3.372.1-.17.161-.388.161-.572 0-.183-.061-.401-.161-.571-.043-.074-1.226-1.307-3.234-3.372C8.864 2.27 7.332.697 7.201.565l-.238-.24-.741.761" fill="#3A4659" fill-rule="evenodd"/></svg>