<svg width="18" height="17" fill="none" xmlns="http://www.w3.org/2000/svg"><path d="M8.115.737c-2.552.389-4.611 2.329-5.202 4.903-.14.61-.153.832-.153 2.681v1.749l-.586 1.193c-.323.655-.595 1.234-.605 1.286-.019.095-.019.095.189-.084l1.172-.999c.828-.704.97-.837 1.011-.946.043-.111.049-.325.05-1.716 0-1.738.025-2.312.12-2.78.217-1.076.843-2.165 1.646-2.863 1.264-1.099 2.87-1.483 4.504-1.075.71.178 1.459.571 2.021 1.062.203.177.208.18.275.129.037-.029.25-.207.473-.397l.406-.345-.08-.086a6.951 6.951 0 0 0-.351-.312A6.283 6.283 0 0 0 9.751.722C9.4.678 8.442.687 8.115.737M8.6 8.158C4.18 11.918.564 15.003.563 15.015c-.002.027.944 1.151.97 1.153.019.002 15.879-13.473 16.024-13.613l.082-.08-.487-.576a13.298 13.298 0 0 0-.502-.576c-.008 0-3.631 3.076-8.05 6.835m5.983-1.552-.573.486v3.343l.615 1.234c.375.753.615 1.267.615 1.32 0 .193.288.181-4.259.182l-4.126.001-.728.622-.727.621.555.008.555.008v.157c.001.425.25 1.042.577 1.43a2.485 2.485 0 0 0 3.866-.049c.31-.39.536-.972.537-1.382v-.157h1.829c1.219 0 1.881-.011 1.987-.033.743-.155 1.285-.918 1.172-1.648-.037-.237-.149-.489-.807-1.806l-.431-.863V8.258c-.001-1.75-.012-2.138-.061-2.138-.013 0-.281.219-.596.486m-4.358 8.01a1.244 1.244 0 0 1-.683.932c-.187.092-.214.097-.542.097-.328 0-.355-.005-.542-.097a1.244 1.244 0 0 1-.683-.932l-.025-.186h2.5l-.025.186" fill="#212531" fill-rule="evenodd"/></svg>