<svg width="23" height="22" fill="none" xmlns="http://www.w3.org/2000/svg"><path d="M18.381.937c-.106.027-2.124.709-4.485 1.516L9.209 4.052l-.393.133.01 5.737.01 5.736 4.753 1.621c2.615.891 4.862 1.641 4.994 1.665.821.152 1.74-.397 2.054-1.228.081-.213.082-.263.093-2.862l.01-2.645.22-.113c.121-.063.344-.237.497-.389 1.044-1.034.798-2.68-.513-3.43l-.206-.118V5.313c0-3.099.006-3.006-.22-3.453-.121-.239-.504-.62-.76-.757a2.037 2.037 0 0 0-1.377-.166M4.926 4.736c-1.16.091-2.247.193-2.415.228-.61.125-1.294.548-1.689 1.046a3.72 3.72 0 0 0-.344.564c-.305.624-.298.555-.315 3.12-.009 1.42.001 2.399.025 2.6a3.052 3.052 0 0 0 2.126 2.537c.144.044.303.081.352.081.049 0 .099.015.111.034.012.02.142 1.114.289 2.432.281 2.51.302 2.633.526 2.988a1.961 1.961 0 0 0 2.718.609c.27-.175.543-.475.68-.749.23-.457.217.037.217-8.159V4.562l-.087.004c-.047.003-1.035.079-2.194.17" fill="#30CA4C" fill-rule="evenodd"/></svg>