<svg width="16" height="16" fill="none" xmlns="http://www.w3.org/2000/svg"><path d="M12.249.918a2.435 2.435 0 0 0-.956.397c-.088.059-.406.351-.706.649l-.547.541 1.728 1.728 1.727 1.727.541-.547c.541-.547.685-.723.84-1.032.285-.564.32-1.298.093-1.914a2.451 2.451 0 0 0-1.662-1.51 3.108 3.108 0 0 0-1.058-.039M5.809 6.74c-2.058 2.059-3.464 3.487-3.514 3.567-.115.184-1.415 4.1-1.414 4.26a.57.57 0 0 0 .56.553c.156 0 4.075-1.304 4.253-1.415.079-.05 1.519-1.468 3.573-3.521l3.44-3.437-1.72-1.72c-.946-.946-1.726-1.72-1.734-1.72-.007 0-1.557 1.545-3.444 3.433" fill="#fff" fill-rule="evenodd"/></svg>