<svg width="16" height="20" viewBox="0 0 16 20" fill="none" xmlns="http://www.w3.org/2000/svg">
<path d="M8.00033 0.833313C6.78475 0.833313 5.61896 1.3162 4.75942 2.17574C3.89988 3.03528 3.41699 4.20107 3.41699 5.41665C3.41699 6.63222 3.89988 7.79801 4.75942 8.65755C5.61896 9.51709 6.78475 9.99998 8.00033 9.99998C9.2159 9.99998 10.3817 9.51709 11.2412 8.65755C12.1008 7.79801 12.5837 6.63222 12.5837 5.41665C12.5837 4.20107 12.1008 3.03528 11.2412 2.17574C10.3817 1.3162 9.2159 0.833313 8.00033 0.833313V0.833313ZM13.51 11.8333H2.4907C1.48512 11.8333 0.666992 12.6514 0.666992 13.657V14.3541C0.666992 15.8721 1.53095 17.1848 3.09937 18.0497C4.40424 18.7702 6.14499 19.1666 8.00033 19.1666C11.5322 19.1666 15.3337 17.6606 15.3337 14.3541V13.657C15.3337 12.6514 14.5155 11.8333 13.51 11.8333Z" fill="#30CA4C"/>
</svg>
