<svg width="18" height="16" fill="none" xmlns="http://www.w3.org/2000/svg"><path d="M7.164.252a1.069 1.069 0 0 0-.255.162C6.83.481 5.338 1.964 3.594 3.71 1.129 6.178.409 6.915.362 7.02a.723.723 0 0 0 0 .57c.089.197 6.515 6.628 6.731 6.736a.684.684 0 0 0 .977-.493c.018-.097.03-.849.03-1.894v-1.732l.068-.018c.104-.028.826-.022 1.357.011 2.352.149 4.117.838 5.31 2.075.428.443.682.805.957 1.36.242.487.361.818.498 1.376.101.412.18.551.376.666a.654.654 0 0 0 .829-.109c.2-.2.216-.283.194-.988-.117-3.745-1.658-6.61-4.519-8.398A12.898 12.898 0 0 0 10.618 5c-.688-.227-1.801-.488-2.329-.547l-.186-.02-.009-1.849L8.085.735 7.998.579a.682.682 0 0 0-.834-.327" fill="#0085FF" fill-rule="evenodd"/></svg>