<svg width="17" height="19" viewBox="0 0 17 19" fill="none" xmlns="http://www.w3.org/2000/svg">
<path d="M0.895577 0.75C0.713246 0.750018 0.538388 0.822457 0.409461 0.951384C0.280534 1.08031 0.208095 1.25517 0.208077 1.4375V17.4792C0.206788 17.5703 0.223619 17.6607 0.257591 17.7453C0.291563 17.8298 0.341998 17.9067 0.405967 17.9716C0.469935 18.0365 0.546159 18.088 0.630211 18.1232C0.714263 18.1583 0.804466 18.1765 0.895577 18.1765C0.986688 18.1765 1.07689 18.1583 1.16094 18.1232C1.24499 18.088 1.32122 18.0365 1.38519 17.9716C1.44915 17.9067 1.49959 17.8298 1.53356 17.7453C1.56753 17.6607 1.58437 17.5703 1.58308 17.4792V13.125H16.0206C16.1482 13.1249 16.2734 13.0893 16.3819 13.0222C16.4905 12.955 16.5782 12.8589 16.6353 12.7447C16.6924 12.6305 16.7165 12.5027 16.705 12.3755C16.6935 12.2484 16.6468 12.1269 16.5702 12.0248L12.755 6.9375L16.5702 1.85018C16.6468 1.74806 16.6935 1.62662 16.705 1.49947C16.7165 1.37232 16.6924 1.24449 16.6353 1.13028C16.5782 1.01607 16.4905 0.920006 16.3819 0.852841C16.2734 0.785677 16.1482 0.750067 16.0206 0.75H0.895577Z" fill="#212531"/>
</svg>
