<svg width="18" height="18" fill="none" xmlns="http://www.w3.org/2000/svg"><path d="M2.812.798A2.527 2.527 0 0 0 .798 2.796C.755 3.003.75 3.661.75 9c0 6.572-.011 6.158.182 6.661a2.578 2.578 0 0 0 1.44 1.42c.28.106.617.169.897.169h.241v-3.419c0-2.379.01-3.466.033-3.577.12-.576.634-1.086 1.219-1.21.303-.064 8.173-.064 8.476 0 .585.124 1.095.631 1.218 1.21.024.113.034 1.153.034 3.577v3.419h.241c1.195 0 2.226-.854 2.471-2.046.043-.206.048-.781.048-5.237V4.962l-.074-.149c-.063-.126-.384-.424-2.148-1.993C12.888.916 12.766.81 12.701.81c-.031 0-.041.409-.048 2.092-.008 2.087-.008 2.094-.075 2.272-.138.366-.433.71-.751.88-.367.195-.231.188-3.583.179l-3.039-.008-.179-.067a1.67 1.67 0 0 1-.87-.76c-.196-.373-.195-.362-.196-2.616V.75l-.458.003a5.065 5.065 0 0 0-.69.045M5.34 2.732c0 1.235.011 2.003.029 2.037.017.03.073.07.125.088.125.044 5.536.047 5.65.003.166-.063.166-.066.166-2.174V.75H5.34v1.982m-.368 7.686a.324.324 0 0 0-.081.121c-.021.057-.031 1.168-.031 3.398v3.313h8.28v-3.311c0-2.339-.01-3.338-.033-3.405a.263.263 0 0 0-.088-.125c-.089-.047-7.984-.039-8.047.009" fill="#fff" fill-rule="evenodd"/></svg>