<svg width="28" height="28" fill="none" xmlns="http://www.w3.org/2000/svg"><path d="M11.065 3.553c-3.174.332-5.945 2.498-7.047 5.509-1.48 4.042.317 8.523 4.199 10.47 2.664 1.336 5.907 1.131 8.393-.53l.44-.294 2.803 2.8c2.144 2.142 2.853 2.823 3.014 2.895.432.195.971.098 1.303-.233.331-.332.428-.871.233-1.303-.072-.161-.753-.87-2.895-3.014l-2.8-2.803.294-.44c1.661-2.486 1.866-5.729.53-8.393-1.599-3.187-4.947-5.032-8.467-4.664m2.072 2.397c2.538.519 4.461 2.51 4.86 5.033.109.689.066 1.804-.093 2.434-.304 1.196-.86 2.136-1.788 3.024-.804.769-1.854 1.302-3.022 1.534-.606.121-1.553.129-2.174.019-2.523-.446-4.442-2.328-4.977-4.881-.126-.6-.113-1.779.025-2.426a6.14 6.14 0 0 1 5.195-4.802c.462-.063 1.518-.028 1.974.065" fill="#212531" fill-rule="evenodd"/></svg>