<svg width="14" height="14" fill="none" xmlns="http://www.w3.org/2000/svg"><path d="M10.733.713A2.175 2.175 0 0 0 9.04 2.446c-.051.265-.041.634.025.895l.016.063-2.266 1.133L4.549 5.67l-.155-.164a2.272 2.272 0 0 0-1.098-.622c-.239-.058-.708-.052-.97.012A2.2 2.2 0 0 0 .713 6.562c-.047.23-.047.646 0 .876.086.421.319.83.648 1.14.309.29.636.459 1.058.544.281.057.49.061.76.013.46-.08.822-.263 1.158-.587l.222-.214L6.82 9.465c1.511.756 2.257 1.14 2.249 1.16-.039.104-.067.418-.056.65.072 1.562 1.726 2.524 3.132 1.821a2.17 2.17 0 0 0 1.092-2.56 2.171 2.171 0 0 0-1.238-1.367 2.23 2.23 0 0 0-1.682.008 2.416 2.416 0 0 0-.633.423c-.057.059-.117.107-.134.107-.016 0-1.051-.511-2.299-1.135L4.982 7.438v-.864l2.286-1.143 2.287-1.142.128.12c.396.37.843.556 1.391.578.348.014.579-.022.872-.135a2.172 2.172 0 0 0 1.375-2.239A2.168 2.168 0 0 0 11.577.71a2.808 2.808 0 0 0-.844.003" fill="#30CA4C" fill-rule="evenodd"/></svg>