<svg width="21" height="18" viewBox="0 0 21 18" fill="none" xmlns="http://www.w3.org/2000/svg">
<path d="M11.3333 0C10.8733 0 10.5 0.366546 10.5 0.818182V2.5728C9.01835 2.15724 7.16667 1.63636 7.16667 1.63636C7.16667 1.63636 11.4667 7.82673 7.16667 11.4545H10.5V13.0909H6.91276C5.91609 13.0909 5.5 12.4298 5.5 11.4545H2.16667V13.0909C2.16667 15.8024 4.405 18 7.16667 18H11.9876C14.086 18 15.9499 16.6811 16.6133 14.7273C16.9466 13.7225 19.0133 13.4149 20.5 13.0909V11.4545H17.1667L14.6667 13.0909H12.1667V11.4545H13.8333C13.8333 11.4545 20.0517 7.27105 12.1667 3.03942V0.818182C12.1667 0.366546 11.7933 0 11.3333 0ZM6.01758 2.94354L0.5 9.81818H5.5C5.5 9.81818 8.77758 6.42899 6.01758 2.94354Z" fill="#30CA4C"/>
</svg>
