<svg width="22" height="13" fill="none" xmlns="http://www.w3.org/2000/svg"><path d="M10.12.171C8.049.369 6.328.968 4.657 2.073 2.781 3.313 1.289 5.107.465 7.113.276 7.574 0 8.458 0 8.603c0 .293.198.563.483.657.204.068.346.049.562-.075.182-.104.275-.268.397-.702.132-.465.323-.94.596-1.48 1.403-2.774 4.216-4.827 7.328-5.351 2.69-.453 5.439.237 7.712 1.937.535.4 1.51 1.35 1.888 1.842.721.936 1.353 2.154 1.606 3.094.101.377.212.568.389.666.214.119.355.136.556.069A.703.703 0 0 0 22 8.603c0-.145-.276-1.029-.465-1.49-1.54-3.751-5.242-6.481-9.37-6.91-.478-.05-1.666-.069-2.045-.032m.095 3.699a4.488 4.488 0 0 0-3.174 2.39c-.626 1.252-.626 2.651-.002 3.915.239.484.477.82.831 1.174.816.816 1.797 1.248 2.933 1.291.823.031 1.428-.091 2.124-.429 1.978-.96 2.961-3.241 2.292-5.32-.47-1.464-1.639-2.56-3.153-2.957-.45-.118-1.39-.151-1.851-.064" fill="#30CA4C" fill-rule="evenodd"/></svg>