<svg width="22" height="20" fill="none" xmlns="http://www.w3.org/2000/svg"><path d="M19.177.901C19.04.96 2.134 17.83 1.956 18.085a.682.682 0 0 0 .374 1.039c.398.115.226.259 2.95-2.462a207.835 207.835 0 0 1 2.46-2.435c.011 0 .124.094.25.21.336.307.599.495.954.681.67.352 1.313.512 2.056.512 1.188 0 2.273-.45 3.118-1.293.638-.637 1.027-1.355 1.232-2.274.088-.395.087-1.274-.002-1.686a4.492 4.492 0 0 0-1.132-2.187l-.222-.238 1.027-1.028 1.028-1.028.326.203c.68.424 1.522 1.118 2.025 1.67 1.106 1.214 1.772 2.385 2.206 3.88.088.305.211.47.421.565a.682.682 0 0 0 .938-.452c.053-.193.033-.291-.202-1-.633-1.917-1.804-3.619-3.406-4.95-.326-.272-.996-.76-1.234-.9-.042-.025.28-.368 1.456-1.546 1.37-1.372 1.515-1.53 1.555-1.681.147-.558-.413-1.017-.957-.784M10.21 3.155c-3.264.22-6.39 1.914-8.362 4.532a10.283 10.283 0 0 0-1.645 3.171c-.201.623-.224.754-.167.928.127.386.549.591.909.44.261-.108.326-.209.507-.783a9.29 9.29 0 0 1 2.379-3.909c2.428-2.428 5.841-3.492 9.099-2.836l.389.078.553-.553c.304-.304.544-.563.533-.574-.047-.046-1.208-.315-1.656-.382a11.058 11.058 0 0 0-2.539-.112m.222 3.67A4.384 4.384 0 0 0 7.88 8.1c-.821.821-1.235 1.767-1.305 2.982-.013.228-.009.395.01.395.04 0 4.672-4.627 4.672-4.666 0-.036-.499-.027-.825.014" fill="#212531" fill-rule="evenodd"/></svg>