<svg width="22" height="18" fill="none" xmlns="http://www.w3.org/2000/svg"><path d="M9.827.811a8.296 8.296 0 0 0-4.199 1.751c-.599.481-1.287 1.213-1.435 1.526-.157.335-.1.684.16.973a.892.892 0 0 0 1.013.241c.132-.05.248-.151.526-.456.736-.807 1.278-1.221 2.138-1.634a6.16 6.16 0 0 1 1.512-.507c.361-.073.52-.083 1.256-.082.925.002 1.204.041 1.958.278.47.147 1.297.562 1.727.866.427.301 1.189 1.057 1.482 1.47a6.609 6.609 0 0 1 1.1 2.569l.05.262-.275-.261c-.33-.313-.5-.399-.798-.399a.894.894 0 0 0-.881.638c-.068.228-.068.291.004.537.056.188.122.263 1.219 1.366.648.651 1.226 1.201 1.308 1.245.197.105.598.111.806.011.093-.045.572-.494 1.306-1.228 1.297-1.296 1.301-1.301 1.273-1.74a.837.837 0 0 0-.433-.711c-.173-.104-.232-.119-.449-.119-.141 0-.309.024-.383.055-.073.03-.286.206-.475.391-.221.217-.347.317-.357.284a4.777 4.777 0 0 1-.058-.364c-.104-.75-.388-1.657-.755-2.406a8.297 8.297 0 0 0-5.398-4.361 10.022 10.022 0 0 0-.93-.179C11.361.765 10.3.757 9.827.811m-6.194 5.94c-.225.068-.409.23-1.495 1.322C.964 9.252.918 9.313.918 9.698c0 .625.563 1.054 1.157.881.179-.052.256-.108.569-.411.229-.222.367-.332.376-.3.009.028.035.191.058.362.024.171.091.503.149.737 1.024 4.083 4.987 6.761 9.14 6.176 1.534-.216 3.085-.917 4.214-1.904.474-.415 1.083-1.078 1.19-1.296.08-.163.092-.23.08-.445-.028-.488-.352-.814-.836-.842-.391-.022-.557.069-.953.522a6.426 6.426 0 0 1-2.844 1.889 6.4 6.4 0 0 1-7.474-2.771c-.384-.639-.724-1.541-.814-2.163l-.026-.178.252.242c.406.39.686.491 1.059.383a.915.915 0 0 0 .624-1.161c-.059-.182-.153-.286-1.206-1.346-.628-.631-1.211-1.19-1.297-1.241a1.022 1.022 0 0 0-.703-.081" fill="#fff" fill-rule="evenodd"/></svg>