<svg width="18" height="18" viewBox="0 0 18 18" fill="none" xmlns="http://www.w3.org/2000/svg">
<path d="M14.5 0.75C16.0079 0.75 17.25 1.99207 17.25 3.5V14.5C17.25 16.0079 16.0079 17.25 14.5 17.25H6.70833C5.43599 17.25 4.30343 16.4161 3.98698 15.1866C3.957 15.07 3.95029 14.9486 3.96722 14.8294C3.98415 14.7102 4.0244 14.5955 4.08566 14.4918C4.14693 14.3882 4.22801 14.2976 4.32427 14.2253C4.42054 14.1529 4.53011 14.1003 4.64673 14.0703C4.76335 14.0403 4.88473 14.0336 5.00394 14.0506C5.12315 14.0675 5.23786 14.1077 5.34151 14.169C5.44517 14.2303 5.53575 14.3113 5.60807 14.4076C5.68039 14.5039 5.73304 14.6134 5.76302 14.7301C5.85357 15.0819 6.27201 15.4167 6.70833 15.4167H14.5C15.017 15.4167 15.4167 15.017 15.4167 14.5V3.5C15.4167 2.98301 15.017 2.58333 14.5 2.58333H6.70833C6.27201 2.58333 5.85357 2.91815 5.76302 3.26994C5.73304 3.38655 5.68039 3.49613 5.60807 3.59239C5.53575 3.68866 5.44517 3.76974 5.34151 3.831C5.23786 3.89227 5.12315 3.93251 5.00394 3.94945C4.88473 3.96638 4.76335 3.95966 4.64673 3.92969C4.53011 3.89971 4.42054 3.84706 4.32427 3.77474C4.22801 3.70241 4.14693 3.61184 4.08566 3.50818C4.0244 3.40452 3.98415 3.28981 3.96722 3.1706C3.95029 3.05139 3.957 2.93001 3.98698 2.8134C4.30343 1.58394 5.43599 0.75 6.70833 0.75H14.5ZM4.42651 5.32438C4.60879 5.32461 4.78687 5.37917 4.93799 5.48109C5.08911 5.58301 5.20642 5.72767 5.27492 5.89658C5.34343 6.0655 5.36003 6.251 5.3226 6.4294C5.28517 6.60779 5.19541 6.77098 5.06478 6.89811L3.87956 8.08333H12.2083C12.3298 8.08162 12.4504 8.10406 12.5631 8.14935C12.6758 8.19465 12.7784 8.2619 12.8649 8.34719C12.9514 8.43248 13.0201 8.53411 13.067 8.64618C13.1139 8.75825 13.1381 8.87852 13.1381 9C13.1381 9.12148 13.1139 9.24175 13.067 9.35382C13.0201 9.46589 12.9514 9.56752 12.8649 9.65281C12.7784 9.7381 12.6758 9.80535 12.5631 9.85065C12.4504 9.89594 12.3298 9.91838 12.2083 9.91667H3.87956L5.06478 11.1019C5.15276 11.1864 5.22299 11.2875 5.27138 11.3995C5.31977 11.5114 5.34533 11.6319 5.34657 11.7539C5.34781 11.8758 5.32471 11.9968 5.27861 12.1097C5.23251 12.2226 5.16435 12.3252 5.07811 12.4114C4.99187 12.4977 4.88929 12.5658 4.77637 12.6119C4.66346 12.658 4.54249 12.6811 4.42053 12.6799C4.29858 12.6787 4.1781 12.6531 4.06614 12.6047C3.95419 12.5563 3.85302 12.4861 3.76856 12.3981L1.01856 9.64811C0.846712 9.4762 0.750177 9.24307 0.750177 9C0.750177 8.75693 0.846712 8.5238 1.01856 8.35189L3.76856 5.60189C3.85408 5.51397 3.95639 5.44411 4.0694 5.39644C4.18242 5.34877 4.30386 5.32427 4.42651 5.32438V5.32438Z" fill="#212531"/>
</svg>
