<svg width="20" height="12" fill="none" xmlns="http://www.w3.org/2000/svg"><path d="M1.955.067C1.547.138 1.171.43.976.826c-.12.243-.126.269-.126.589 0 .307.009.353.106.559.273.577.877.905 1.464.797.92-.17 1.419-1.134 1.012-1.954a1.169 1.169 0 0 0-.41-.495A1.452 1.452 0 0 0 1.955.067m4.074.485c-.09.028-.226.112-.323.199a.886.886 0 0 0-.012 1.324c.302.282-.288.26 6.657.25l6.166-.008.177-.099a.912.912 0 0 0 0-1.603l-.177-.098L12.35.51C7.077.505 6.161.511 6.029.552M1.883 4.663A1.385 1.385 0 0 0 .9 6.409c.127.411.503.787.909.907.242.072.585.064.831-.018 1.161-.391 1.268-1.978.171-2.521-.222-.11-.282-.124-.539-.132a1.964 1.964 0 0 0-.389.018m4.024.523c-.186.093-.302.212-.416.427-.056.106-.073.194-.073.387 0 .383.169.656.509.823l.19.094h6.15c5.952 0 6.155-.002 6.313-.063.75-.29.794-1.332.07-1.674l-.167-.079-6.201-.001H6.08l-.173.086M1.955 9.234c-.408.071-.784.362-.979.759-.12.242-.126.268-.126.589 0 .307.009.353.106.559.273.576.877.905 1.464.797.92-.17 1.419-1.134 1.012-1.955a1.172 1.172 0 0 0-.41-.494 1.443 1.443 0 0 0-1.067-.255m4.074.485a.998.998 0 0 0-.323.199.886.886 0 0 0-.012 1.324c.302.282-.288.26 6.657.25l6.166-.009.177-.098a.912.912 0 0 0 0-1.603l-.177-.099-6.167-.006c-5.273-.005-6.189.001-6.321.042"/></svg>