<svg width="16" height="13" fill="none" xmlns="http://www.w3.org/2000/svg"><path d="M14.147.801a6.31 6.31 0 0 0-.907.27c-.983.365-9.751 4.08-11.349 4.808-.888.404-1.148.741-.812 1.051.064.059.174.136.245.172.258.13 1.604.578 2.276.757.332.089.39.096.747.097.37.002.397-.002.646-.087.15-.051.36-.151.501-.239.133-.082 1.502-.987 3.041-2.011a195.43 195.43 0 0 1 2.867-1.886c.048-.019.093-.015.157.012.104.043.148.111.148.23 0 .106.101.005-2.115 2.118-2.249 2.144-2.179 2.076-2.306 2.274-.187.29-.205.504-.065.762.145.267.3.38 2.799 2.047.986.657 1.881 1.237 1.988 1.289.778.374 1.267.138 1.563-.754.162-.486.527-2.628 1.254-7.351.117-.763.245-1.579.285-1.813.091-.545.102-1.125.026-1.334-.068-.185-.133-.268-.276-.352-.104-.061-.158-.073-.351-.078a2.104 2.104 0 0 0-.362.018" fill="#30CA4C" fill-rule="evenodd"/></svg>