<svg width="18" height="16" fill="none" xmlns="http://www.w3.org/2000/svg"><path d="M11.835.962a3.69 3.69 0 0 0-1.14.358c-.414.206-.685.4-1.007.719-.664.662-1.078 1.642-1.078 2.555 0 .146-.005.266-.012.266-.127 0-.726-.081-1.021-.139C5.618 4.34 4.04 3.247 3.29 1.752c-.166-.332-.372-.463-.66-.419-.179.027-.344.151-.509.383-.547.772-.726 1.884-.455 2.834.133.465.353.878.701 1.315.182.229.168.226-.187-.035-.213-.157-.358-.205-.54-.177-.302.045-.488.283-.481.618.006.316.253.982.515 1.392a5.28 5.28 0 0 0 1.201 1.272c.139.103.232.19.21.197a3.348 3.348 0 0 1-.216.045c-.215.04-.355.123-.441.261-.181.293-.128.536.191.872.568.599 1.292 1.056 2.226 1.404.077.029-.112.098-.668.242-.759.197-1.461.3-2.36.345a6.37 6.37 0 0 0-.694.06c-.188.061-.373.332-.373.547 0 .172.133.389.353.575.903.764 2.213 1.274 3.828 1.489.599.079 1.746.109 2.314.059 2.244-.196 4.1-1.053 5.655-2.61 1.422-1.424 2.454-3.346 2.924-5.445.155-.693.272-1.752.251-2.285l-.008-.214.292-.307c.492-.517.891-1.093.891-1.286 0-.101-.094-.256-.196-.322-.107-.071-.303-.065-.456.014l-.127.065.135-.263a4.02 4.02 0 0 0 .2-.463c.062-.192.062-.205.013-.33-.06-.153-.161-.236-.314-.256-.093-.012-.184.024-.605.239a7.253 7.253 0 0 1-.731.331l-.236.079-.169-.145a3.896 3.896 0 0 0-1.689-.83c-.268-.058-.953-.08-1.24-.041" fill="#fff" fill-rule="evenodd"/></svg>