<svg width="25" height="12" fill="none" xmlns="http://www.w3.org/2000/svg"><path d="M17.83.557a1.601 1.601 0 0 0-.76.486c-.653.726-.406 1.851.505 2.299.268.133.295.137.933.158l.657.021-1.878 1.792c-1.033.985-1.892 1.791-1.909 1.791-.016 0-1.207-1.125-2.645-2.5-1.439-1.375-2.694-2.551-2.789-2.613-.251-.163-.656-.257-.981-.226-.576.054-.414-.083-4.475 3.797C1.021 8.876.782 9.113.656 9.37c-.12.244-.135.313-.135.63 0 .318.014.385.137.634.166.338.46.616.792.748.184.073.323.094.613.096.666.002.481.151 3.972-3.186 1.681-1.607 3.071-2.916 3.09-2.909.019.007 1.202 1.128 2.628 2.492 1.426 1.364 2.65 2.521 2.72 2.573.492.364 1.287.367 1.798.007.091-.064 1.282-1.185 2.646-2.49l2.479-2.372.022.651c.018.551.035.683.112.85.134.294.468.624.773.765.228.106.307.12.656.12.364 0 .42-.011.672-.135a1.58 1.58 0 0 0 .737-.753l.111-.237V1.646l-.108-.231a1.51 1.51 0 0 0-.57-.659C23.407.503 23.366.5 20.564.503c-1.877.002-2.593.016-2.734.054" fill="#30CA4C" fill-rule="evenodd"/></svg>