<svg width="24" height="23" fill="none" xmlns="http://www.w3.org/2000/svg"><path d="M10.621.925a6.411 6.411 0 0 0-2.081.718c-1.287.734-2.292 1.934-2.742 3.276-.226.675-.289 1.072-.294 1.841-.006 1.075.151 1.765.616 2.7.855 1.72 2.465 2.897 4.44 3.245.514.091 1.451.089 1.98-.003 2.258-.394 4.088-1.968 4.772-4.105.197-.614.262-1.056.262-1.777 0-.76-.067-1.186-.298-1.88-.686-2.062-2.502-3.611-4.67-3.982-.488-.084-1.52-.101-1.985-.033m1.659 1.719a4.307 4.307 0 0 1 2.345 1.211c1.446 1.447 1.647 3.631.493 5.35-.23.344-.791.892-1.158 1.134a4.45 4.45 0 0 1-3.527.585 4.346 4.346 0 0 1-3.099-3.067c-.093-.35-.106-.473-.106-1.037 0-.559.013-.689.103-1.025.204-.771.559-1.377 1.144-1.957 1.011-1.004 2.336-1.419 3.805-1.194m-1.52 12.06c-1.44.102-2.661.34-3.881.758-2.689.921-4.984 2.65-6.483 4.884-.329.491-.396.633-.396.847 0 .501.359.862.86.864.391.002.524-.1.942-.717.455-.674.875-1.173 1.452-1.728 2.308-2.218 5.664-3.397 9.044-3.178 2.25.145 4.254.803 6.022 1.977a10.856 10.856 0 0 1 3.093 3.139c.193.302.339.421.604.494.65.178 1.259-.53.986-1.146-.232-.524-1.052-1.588-1.802-2.339-2.095-2.095-4.906-3.416-8.041-3.778-.53-.061-1.967-.107-2.4-.077" fill="#212531" fill-rule="evenodd"/></svg>