<svg width="20" height="20" viewBox="0 0 20 20" fill="none" xmlns="http://www.w3.org/2000/svg">
<path d="M9.99967 0.833313C4.94792 0.833313 0.833008 4.94823 0.833008 9.99998C0.833008 15.0517 4.94792 19.1666 9.99967 19.1666C15.0514 19.1666 19.1663 15.0517 19.1663 9.99998C19.1663 4.94823 15.0514 0.833313 9.99967 0.833313ZM9.99967 2.66665C10.2273 2.66665 10.4767 2.75981 10.7946 3.06232C11.1125 3.36482 11.4576 3.87195 11.7542 4.53937C11.98 5.04743 12.1648 5.66752 12.3236 6.33331H7.67578C7.83458 5.66752 8.01931 5.04743 8.24512 4.53937C8.54174 3.87195 8.88689 3.36482 9.20475 3.06232C9.52262 2.75981 9.77208 2.66665 9.99967 2.66665ZM6.74658 3.43113C6.68688 3.55113 6.62528 3.6687 6.56934 3.79458C6.23776 4.54062 5.9804 5.404 5.78695 6.33331H3.64925C4.37015 5.08406 5.44831 4.07314 6.74658 3.43113ZM13.2528 3.43113C14.551 4.07314 15.6292 5.08406 16.3501 6.33331H14.2124C14.019 5.404 13.7616 4.54062 13.43 3.79458C13.3741 3.6687 13.3125 3.55113 13.2528 3.43113ZM2.90625 8.16665H5.50586C5.44959 8.75962 5.41634 9.37081 5.41634 9.99998C5.41634 10.6291 5.44959 11.2403 5.50586 11.8333H2.90625C2.75577 11.2465 2.66634 10.6349 2.66634 9.99998C2.66634 9.36508 2.75577 8.75351 2.90625 8.16665ZM7.3571 8.16665H12.6423C12.7061 8.75569 12.7497 9.36438 12.7497 9.99998C12.7497 10.6356 12.7061 11.2443 12.6423 11.8333H7.3571C7.29329 11.2443 7.24967 10.6356 7.24967 9.99998C7.24967 9.36438 7.29329 8.75569 7.3571 8.16665ZM14.4935 8.16665H17.0931C17.2436 8.75351 17.333 9.36508 17.333 9.99998C17.333 10.6349 17.2436 11.2465 17.0931 11.8333H14.4935C14.5498 11.2403 14.583 10.6291 14.583 9.99998C14.583 9.37081 14.5498 8.75962 14.4935 8.16665ZM3.64925 13.6666H5.78695C5.9804 14.596 6.23776 15.4593 6.56934 16.2054C6.62528 16.3313 6.68688 16.4488 6.74658 16.5688C5.44831 15.9268 4.37015 14.9159 3.64925 13.6666ZM7.67578 13.6666H12.3236C12.1648 14.3324 11.98 14.9525 11.7542 15.4606C11.4576 16.128 11.1125 16.6351 10.7946 16.9376C10.4767 17.2401 10.2273 17.3333 9.99967 17.3333C9.77208 17.3333 9.52262 17.2401 9.20475 16.9376C8.88689 16.6351 8.54174 16.128 8.24512 15.4606C8.01931 14.9525 7.83458 14.3324 7.67578 13.6666ZM14.2124 13.6666H16.3501C15.6292 14.9159 14.551 15.9268 13.2528 16.5688C13.3125 16.4488 13.3741 16.3313 13.43 16.2054C13.7616 15.4593 14.019 14.596 14.2124 13.6666Z" fill="#30CA4C"/>
</svg>
