<svg width="201" height="54" viewBox="0 0 201 54" fill="none" xmlns="http://www.w3.org/2000/svg">
<path d="M11.4434 42.7998C9.5293 42.7998 7.79297 42.5332 6.23438 42C4.68945 41.4531 3.1377 40.708 1.5791 39.7646V32.6484C3.17871 33.8105 4.85352 34.7881 6.60352 35.5811C8.35352 36.374 9.99414 36.7705 11.5254 36.7705C12.7559 36.7705 13.7539 36.4355 14.5195 35.7656C15.2988 35.0957 15.6885 34.1523 15.6885 32.9355C15.6885 32.5117 15.5928 32.1221 15.4014 31.7666C15.21 31.4111 14.9775 31.1104 14.7041 30.8643C14.4443 30.6045 14.0342 30.3379 13.4736 30.0645C12.9268 29.7773 12.4277 29.5449 11.9766 29.3672C11.5254 29.1758 10.8896 28.9229 10.0693 28.6084C8.93457 28.1982 7.95703 27.8018 7.13672 27.4189C6.33008 27.0225 5.55078 26.5508 4.79883 26.0039C4.04688 25.457 3.43848 24.8691 2.97363 24.2402C2.50879 23.5977 2.13965 22.8457 1.86621 21.9844C1.60645 21.1094 1.47656 20.1318 1.47656 19.0518C1.47656 16.2764 2.48145 14.0547 4.49121 12.3867C6.50098 10.7051 9.07812 9.86426 12.2227 9.86426C15.0938 9.86426 17.9102 10.6025 20.6719 12.0791V18.7852C19.5645 17.8965 18.2314 17.1787 16.6729 16.6318C15.1279 16.085 13.6787 15.8115 12.3252 15.8115C10.999 15.8115 9.95996 16.1396 9.20801 16.7959C8.45605 17.4385 8.08008 18.2656 8.08008 19.2773C8.08008 19.7285 8.16211 20.1387 8.32617 20.5078C8.50391 20.877 8.71582 21.1914 8.96191 21.4512C9.22168 21.6973 9.59082 21.9434 10.0693 22.1895C10.5479 22.4355 10.999 22.6406 11.4229 22.8047C11.8467 22.9551 12.4141 23.1465 13.125 23.3789C14.5195 23.8301 15.7363 24.3223 16.7754 24.8555C17.8281 25.3887 18.7988 26.0381 19.6875 26.8037C20.5762 27.5557 21.2529 28.4512 21.7178 29.4902C22.1963 30.5156 22.4355 31.6709 22.4355 32.9561C22.4355 36.0596 21.417 38.4795 19.3799 40.2158C17.3428 41.9385 14.6973 42.7998 11.4434 42.7998ZM38.4316 20.7744C43.5176 20.7744 46.0605 24.083 46.0605 30.7002V42H39.7441V30.5977C39.7441 27.6172 38.623 26.127 36.3809 26.127C35.5605 26.127 34.7812 26.3525 34.043 26.8037C33.3047 27.2412 32.6826 27.7949 32.1768 28.4648V42H25.8604V9.65918H32.1768V23.3584C33.0928 22.5791 34.1045 21.957 35.2119 21.4922C36.3193 21.0137 37.3926 20.7744 38.4316 20.7744ZM56.4785 17.7803C55.7676 18.4229 54.8447 18.7441 53.71 18.7441C52.5752 18.7441 51.6455 18.4229 50.9209 17.7803C50.21 17.124 49.8545 16.2764 49.8545 15.2373C49.8545 14.1982 50.21 13.3506 50.9209 12.6943C51.6455 12.0381 52.5752 11.71 53.71 11.71C54.8447 11.71 55.7676 12.0381 56.4785 12.6943C57.2031 13.3506 57.5654 14.1982 57.5654 15.2373C57.5654 16.2764 57.2031 17.124 56.4785 17.7803ZM50.5518 42V21.4922H56.8682V42H50.5518ZM61.5029 42V9.65918H67.8193V42H61.5029ZM72.4541 42V9.65918H78.7705V42H72.4541ZM81.252 25.5322L89.9678 15.627H91.1982V21.4922H97.043V27.0498H91.1982V33.5508C91.1982 35.834 92.0391 36.9756 93.7207 36.9756C95.1973 36.9756 96.6191 36.6748 97.9863 36.0732L97.7607 41.6924C97.2822 41.9111 96.8652 42.082 96.5098 42.2051C96.1543 42.3281 95.6484 42.4443 94.9922 42.5537C94.3496 42.6631 93.6318 42.7178 92.8389 42.7178C90.0088 42.7178 87.9717 41.9727 86.7275 40.4824C85.4971 38.9922 84.8818 36.8867 84.8818 34.166V27.0498H81.252V25.5322ZM114.618 21.2871L115.008 27.0293C113.531 26.5508 112.342 26.3115 111.439 26.3115C109.771 26.3115 108.343 27.125 107.153 28.752V42H100.837V21.4922H106.189L106.887 23.6455C108.486 21.7314 110.209 20.7744 112.055 20.7744C113.094 20.7744 113.948 20.9453 114.618 21.2871ZM136.931 30.7617C136.931 31.1719 136.896 31.6777 136.828 32.2793C136.773 32.8809 136.712 33.2773 136.644 33.4688H122.514C122.596 34.5898 123.17 35.5674 124.236 36.4014C125.316 37.2217 126.69 37.6318 128.358 37.6318C129.767 37.6318 131.045 37.4609 132.193 37.1191C133.355 36.7637 134.634 36.2441 136.028 35.5605L135.536 40.8721C132.993 42.1299 130.368 42.7588 127.661 42.7588C125.405 42.7588 123.402 42.2666 121.652 41.2822C119.916 40.2842 118.59 38.9512 117.674 37.2832C116.758 35.6016 116.3 33.7285 116.3 31.6641C116.3 28.5742 117.312 25.9902 119.335 23.9121C121.372 21.8203 123.956 20.7744 127.087 20.7744C128.427 20.7744 129.644 20.959 130.737 21.3281C131.845 21.6836 132.774 22.1758 133.526 22.8047C134.278 23.4199 134.914 24.1582 135.434 25.0195C135.953 25.8672 136.329 26.7764 136.562 27.7471C136.808 28.7041 136.931 29.709 136.931 30.7617ZM122.575 29.9209H131.845C131.831 28.5537 131.387 27.4941 130.512 26.7422C129.65 25.9902 128.604 25.6143 127.374 25.6143C125.952 25.6143 124.797 25.9971 123.908 26.7627C123.033 27.5283 122.589 28.5811 122.575 29.9209ZM159.612 30.7617C159.612 31.1719 159.578 31.6777 159.51 32.2793C159.455 32.8809 159.394 33.2773 159.325 33.4688H145.195C145.277 34.5898 145.852 35.5674 146.918 36.4014C147.998 37.2217 149.372 37.6318 151.04 37.6318C152.448 37.6318 153.727 37.4609 154.875 37.1191C156.037 36.7637 157.315 36.2441 158.71 35.5605L158.218 40.8721C155.675 42.1299 153.05 42.7588 150.343 42.7588C148.087 42.7588 146.084 42.2666 144.334 41.2822C142.598 40.2842 141.271 38.9512 140.355 37.2832C139.439 35.6016 138.981 33.7285 138.981 31.6641C138.981 28.5742 139.993 25.9902 142.017 23.9121C144.054 21.8203 146.638 20.7744 149.769 20.7744C151.108 20.7744 152.325 20.959 153.419 21.3281C154.526 21.6836 155.456 22.1758 156.208 22.8047C156.96 23.4199 157.596 24.1582 158.115 25.0195C158.635 25.8672 159.011 26.7764 159.243 27.7471C159.489 28.7041 159.612 29.709 159.612 30.7617ZM145.257 29.9209H154.526C154.513 28.5537 154.068 27.4941 153.193 26.7422C152.332 25.9902 151.286 25.6143 150.056 25.6143C148.634 25.6143 147.479 25.9971 146.59 26.7627C145.715 27.5283 145.271 28.5811 145.257 29.9209Z" fill="#212531"/>
<path d="M172.298 4H181.865V13.5675V16.3698L184.679 13.5558L191.444 6.79052L198.209 13.5558L191.444 20.321L188.63 23.135H191.433H201V32.7025H191.433H181.865V42.27H172.298V32.7025V29.8533V28.2352V25.9372V24.3192V23.135V16.3228V13.5675V4Z" fill="#30CA4C"/>
<path d="M155.999 13.5558L162.765 6.79053L169.53 13.5558L172.297 16.3228L165.532 23.088L162.765 20.321L155.999 13.5558Z" fill="#212531"/>
</svg>
