<svg width="26" height="26" viewBox="0 0 26 26" fill="none" xmlns="http://www.w3.org/2000/svg">
<path fill-rule="evenodd" clip-rule="evenodd" d="M12.5366 4.5732C14.9458 4.5732 16.8729 6.48823 16.8729 8.81884C16.8729 11.1495 14.9458 13.0645 12.5366 13.0645C10.1274 13.0645 8.20032 11.1495 8.20032 8.81884C8.20032 6.48823 10.1274 4.5732 12.5366 4.5732ZM18.5907 8.81884C18.5907 5.51111 15.8659 2.85535 12.5366 2.85535C9.2073 2.85535 6.48246 5.51111 6.48246 8.81884C6.48246 12.1266 9.2073 14.7823 12.5366 14.7823C15.8659 14.7823 18.5907 12.1266 18.5907 8.81884ZM12.5366 18.4015C16.8751 18.4015 20.6003 20.5574 22.4806 23.6595C22.7265 24.0652 23.2547 24.1947 23.6604 23.9488C24.0661 23.7029 24.1956 23.1747 23.9497 22.769C21.7364 19.1176 17.4328 16.6836 12.5366 16.6836C7.64036 16.6836 3.3368 19.1176 1.12349 22.769C0.877602 23.1747 1.00712 23.7029 1.41279 23.9488C1.81846 24.1947 2.34665 24.0652 2.59255 23.6595C4.47289 20.5574 8.19812 18.4015 12.5366 18.4015Z" fill="#212531"/>
</svg>
